<svg version="1.1" id="Layer_1" xmlns="http://www.w3.org/2000/svg" xmlns:xlink="http://www.w3.org/1999/xlink" x="0px" y="0px"
	 width="100%" viewBox="0 0 630 170" xml:space="preserve">
<path fill="#FF538C" opacity="1.000000" stroke="none"
	d="
M37.835968,161.214157
	C20.490465,152.755646 10.785156,139.268585 7.882143,120.523659
	C4.492462,98.636284 4.441187,76.818268 7.023834,54.834705
	C10.064250,28.954592 28.782063,10.683108 51.992271,7.604908
	C67.387909,5.563098 82.721588,3.577012 98.213295,5.945006
	C102.402550,6.585357 107.863335,7.259479 107.582520,12.881788
	C107.312012,18.297626 102.007217,18.927128 97.687065,19.174891
	C84.727997,19.918091 71.751610,20.354675 58.784031,20.955151
	C44.833603,21.601141 32.551586,26.333042 25.612377,38.906345
	C21.713089,45.971558 19.470173,54.379261 18.314945,62.444813
	C15.590071,81.469284 15.739350,100.620377 18.821928,119.682976
	C21.828562,138.275940 33.737904,151.278183 52.511612,154.450607
	C74.977310,158.246872 97.650215,158.547348 120.145905,154.477966
	C140.122467,150.864288 152.886368,136.612869 154.846970,115.502968
	C156.028931,102.776894 155.962265,89.935730 156.497696,77.147995
	C156.601822,74.660637 156.498474,72.054802 157.235535,69.740814
	C157.761505,68.089500 159.553406,65.664490 160.745163,65.684494
	C162.433609,65.712837 164.836517,67.316460 165.591324,68.890678
	C166.847672,71.510979 167.731247,74.682930 167.562683,77.551537
	C166.636780,93.308632 166.571426,109.256897 163.889206,124.737305
	C159.838776,148.114395 140.373810,163.660660 116.756050,166.044952
	C94.427475,168.299103 72.231689,168.777008 50.076767,164.962555
	C46.026550,164.265228 42.144970,162.588409 37.835968,161.214157
M328.721283,114.106483
	C329.203644,111.492432 329.198822,107.868530 330.492798,107.322495
	C332.642761,106.415253 336.386017,106.519157 338.127594,107.888954
	C345.525391,113.707581 353.873108,114.584045 362.692322,113.969452
	C370.146637,113.449982 375.083557,109.476166 375.959564,103.442406
	C376.991943,96.331619 373.544678,90.515327 366.301270,87.958664
	C359.887817,85.694954 353.289429,83.961029 346.834045,81.809128
	C336.904144,78.499001 331.569885,71.946281 331.085663,62.774017
	C330.521271,52.081944 335.276276,43.301044 344.536652,39.219933
	C356.297241,34.036942 368.190643,34.860828 379.920197,39.616184
	C381.282806,40.168613 382.567169,41.058956 383.693359,42.020401
	C386.255432,44.207687 387.972229,46.883877 386.254852,50.301796
	C384.598206,53.598881 381.684113,52.931141 378.848145,52.124039
	C370.887604,49.858524 363.108337,46.700256 354.474976,48.724201
	C348.497589,50.125507 344.869385,53.171143 344.308136,58.148552
	C343.754852,63.054893 346.389740,67.626060 351.912811,69.827942
	C357.764496,72.160820 363.967804,73.607689 369.834869,75.907555
	C374.262360,77.643120 379.028381,79.380295 382.552185,82.393326
	C392.995575,91.322945 391.010040,110.956841 379.245758,119.671616
	C368.158234,127.885056 345.839081,128.509369 334.280060,120.655251
	C332.077515,119.158653 330.619385,116.566490 328.721283,114.106483
M50.013344,86.031281
	C50.789040,70.107521 58.300308,59.257915 72.400055,52.960995
	C76.467163,51.144630 80.597404,50.078011 84.814056,52.657913
	C85.333893,52.975964 86.233437,53.367287 86.598457,53.142471
	C94.625755,48.198578 100.780571,53.667664 106.651993,57.387356
	C119.729088,65.672043 125.315193,81.975525 121.033943,96.809326
	C116.727394,111.730766 103.224998,122.092316 87.306274,122.691483
	C71.972054,123.268631 57.244343,113.356125 52.244328,98.672485
	C50.928413,94.807991 50.725624,90.564453 50.013344,86.031281
M78.931305,66.432587
	C63.155678,70.952484 58.074436,88.114830 65.890015,100.458527
	C71.289619,108.986496 79.420746,112.974396 89.295921,111.733780
	C99.230278,110.485741 106.853294,105.016357 110.024513,95.226120
	C113.231178,85.326447 111.752449,75.657623 103.613541,68.702972
	C98.892326,64.668732 92.604515,62.467850 88.205063,60.083344
	C84.593491,62.645493 82.114265,64.404320 78.931305,66.432587
M498.438171,121.562027
	C486.334473,128.306183 474.221069,129.184845 462.610474,122.006699
	C450.713928,114.651802 447.295807,102.815697 448.531158,89.587585
	C449.772797,76.292137 458.287872,66.061325 469.887146,62.903603
	C489.075317,57.679916 505.408661,64.324722 510.579315,79.689186
	C515.582886,94.557220 511.771667,112.168365 498.438171,121.562027
M461.919403,98.103050
	C462.984344,105.704315 466.121429,111.805176 474.055786,114.134003
	C488.164856,118.275177 498.568756,110.093788 499.661438,94.102867
	C500.407227,83.188469 494.379852,74.820427 484.644135,73.253799
	C473.905182,71.525734 464.828308,77.321396 462.442810,87.779739
	C461.752136,90.807755 462.038239,94.058594 461.919403,98.103050
M567.359253,71.515251
	C566.553894,67.769424 563.709778,63.608559 568.899231,61.777950
	C573.468506,60.166092 576.263550,63.140888 578.069763,67.214142
	C583.506531,79.475220 589.024048,91.700516 594.959778,104.943222
	C598.668152,98.341797 601.951355,92.507019 605.224976,86.666855
	C608.880920,80.144760 612.370728,73.522446 616.242126,67.131119
	C618.326355,63.690220 620.716431,58.845169 625.683838,61.238960
	C630.538879,63.578625 627.607605,68.201530 626.101929,71.322235
	C617.090393,89.999336 607.860596,108.573669 598.482361,127.070084
	C594.728882,134.472855 590.418274,141.593460 586.342712,148.832062
	C585.776123,149.838364 585.309814,151.313507 584.437927,151.655151
	C582.186890,152.537247 579.398254,153.843246 577.479980,153.154343
	C576.178101,152.686813 574.873779,148.728867 575.490906,147.028931
	C577.974365,140.187286 580.752197,133.364227 584.291809,127.020012
	C587.577820,121.130371 587.789246,116.397797 584.534485,110.096382
	C578.146118,97.728119 573.105469,84.663788 567.359253,71.515251
M426.671509,77.131653
	C426.403412,90.596436 426.160675,103.576775 425.838684,116.555145
	C425.797974,118.195450 425.778320,120.101128 424.965759,121.390221
	C423.955353,122.993279 421.962219,125.293007 420.695923,125.116905
	C418.687317,124.837585 416.055847,123.137032 415.272583,121.345070
	C414.130493,118.732269 414.128235,115.507347 414.103790,112.539558
	C413.997040,99.586830 414.057892,86.632706 414.057892,73.091545
	C410.186096,73.091545 407.056549,73.221581 403.942963,73.054329
	C400.934723,72.892723 398.363739,71.928940 397.983582,68.305222
	C397.576385,64.423782 399.605682,62.162666 403.114899,61.548355
	C406.491943,60.957180 409.985565,61.031956 414.174469,60.766888
	C414.174469,56.483871 413.883240,52.333149 414.267975,48.246067
	C414.567871,45.060421 414.789551,41.264137 419.469360,41.008030
	C424.399078,40.738251 425.088287,44.728104 425.677734,47.982861
	C426.410370,52.027878 426.226929,56.238811 426.476044,61.098274
	C429.638275,61.098274 432.906555,60.876560 436.131134,61.157055
	C439.773651,61.473896 443.228729,62.487972 443.093170,67.231827
	C442.959625,71.905357 439.562958,72.761749 435.865479,73.042030
	C433.877045,73.192772 431.849915,73.310211 429.878479,73.094040
	C426.966400,72.774742 426.457245,74.307289 426.671509,77.131653
M561.407593,62.949539
	C562.752747,69.874687 561.513733,71.994438 555.259644,73.948860
	C551.469421,75.133308 547.512939,75.885551 543.862915,77.393105
	C539.526428,79.184212 537.570190,82.429955 537.668396,87.568413
	C537.865112,97.859161 537.339050,108.167900 536.953979,118.463333
	C536.817322,122.117401 535.885925,125.582474 531.293030,125.906853
	C526.338074,126.256821 524.937866,122.969505 524.905579,118.910942
	C524.768250,101.649353 524.621521,84.385223 524.811829,67.125702
	C524.852600,63.426144 525.562500,58.916447 531.019531,59.272305
	C536.316101,59.617699 537.044434,63.637058 537.052307,67.938919
	C537.053162,68.390762 537.232910,68.842278 537.395935,69.602928
	C544.467041,63.979958 550.733398,55.895515 561.407593,62.949539
M150.609375,15.375186
	C155.172943,17.620426 156.767059,21.439505 155.510101,25.501778
	C154.828964,27.703135 151.835358,30.441629 149.685440,30.627214
	C146.827347,30.873936 143.052460,29.621128 140.985657,27.640909
	C138.307709,25.075165 138.798859,21.059931 140.990433,17.938501
	C143.254074,14.714412 146.518982,13.872732 150.609375,15.375186
z"/>
<path fill="#3F5670" opacity="1.000000" stroke="none"
	d="
M310.308777,69.796616
	C311.938477,76.725983 314.195404,83.292801 314.587158,89.969063
	C315.149536,99.554520 314.489624,109.225731 314.069550,118.848030
	C313.896484,122.812462 311.805847,125.470253 307.300385,124.978020
	C302.944458,124.502121 302.246368,121.379021 302.132599,117.767281
	C301.807983,107.460419 301.702606,97.134483 300.940796,86.858330
	C300.516418,81.133766 299.859558,74.651215 293.332672,72.308632
	C285.963318,69.663681 279.235474,72.499352 273.258057,76.867195
	C272.288086,77.575974 272.107910,79.754669 272.056915,81.270554
	C271.637238,93.745003 271.496063,106.231850 270.843964,118.692619
	C270.729340,120.883339 269.117218,124.094620 267.336792,124.876434
	C263.306030,126.646423 260.301849,124.629021 260.214478,120.063438
	C259.887207,102.955933 259.856567,85.840126 259.970154,68.729118
	C259.992218,65.400063 260.040161,61.203918 264.725708,60.528687
	C269.412659,59.853256 270.955902,63.417404 272.127594,67.583832
	C280.371613,61.638451 288.969940,56.635262 298.955933,60.318584
	C303.218384,61.890789 306.419434,66.340706 310.308777,69.796616
M241.867096,113.840950
	C241.604263,116.626060 241.912109,119.218613 240.936081,121.168549
	C239.995026,123.048645 237.746567,125.430450 236.039139,125.457130
	C234.202118,125.485825 232.205154,123.161148 230.534760,121.590240
	C229.968338,121.057564 230.062592,119.693680 230.059998,118.709091
	C229.996292,94.570068 229.855087,70.430260 230.020325,46.292587
	C230.048660,42.154011 230.145020,37.076893 236.077698,36.375729
	C239.640579,35.954647 241.777954,39.446949 241.820496,46.405514
	C241.956924,68.725403 241.874329,91.046638 241.867096,113.840950
z"/>
</svg>
