<svg version="1.1" id="Layer_1" xmlns="http://www.w3.org/2000/svg" xmlns:xlink="http://www.w3.org/1999/xlink" x="0px" y="0px"
	 width="100%" viewBox="0 0 170 170" xml:space="preserve">
<path fill="#D6537A" opacity="1.000000" stroke="none"
	d="
M37.835968,161.214157
	C20.490465,152.755646 10.785156,139.268585 7.882143,120.523659
	C4.492462,98.636284 4.441187,76.818268 7.023834,54.834705
	C10.064250,28.954592 28.782063,10.683108 51.992271,7.604908
	C67.387909,5.563098 82.721588,3.577012 98.213295,5.945006
	C102.402550,6.585357 107.863335,7.259479 107.582520,12.881788
	C107.312012,18.297626 102.007217,18.927128 97.687065,19.174891
	C84.727997,19.918091 71.751610,20.354675 58.784031,20.955151
	C44.833603,21.601141 32.551586,26.333042 25.612377,38.906345
	C21.713089,45.971558 19.470173,54.379261 18.314945,62.444813
	C15.590071,81.469284 15.739350,100.620377 18.821928,119.682976
	C21.828562,138.275940 33.737904,151.278183 52.511612,154.450607
	C74.977310,158.246872 97.650215,158.547348 120.145905,154.477966
	C140.122467,150.864288 152.886368,136.612869 154.846970,115.502968
	C156.028931,102.776894 155.962265,89.935730 156.497696,77.147995
	C156.601822,74.660637 156.498474,72.054802 157.235535,69.740814
	C157.761505,68.089500 159.553406,65.664490 160.745163,65.684494
	C162.433609,65.712837 164.836517,67.316460 165.591324,68.890678
	C166.847672,71.510979 167.731247,74.682930 167.562683,77.551537
	C166.636780,93.308632 166.571426,109.256897 163.889206,124.737305
	C159.838776,148.114395 140.373810,163.660660 116.756050,166.044952
	C94.427475,168.299103 72.231689,168.777008 50.076767,164.962555
	C46.026550,164.265228 42.144970,162.588409 37.835968,161.214157
M50.013344,86.031281
	C50.789040,70.107521 58.300308,59.257915 72.400055,52.960995
	C76.467163,51.144630 80.597404,50.078011 84.814056,52.657913
	C85.333893,52.975964 86.233437,53.367287 86.598457,53.142471
	C94.625755,48.198578 100.780571,53.667664 106.651993,57.387356
	C119.729088,65.672043 125.315193,81.975525 121.033943,96.809326
	C116.727394,111.730766 103.224998,122.092316 87.306274,122.691483
	C71.972054,123.268631 57.244343,113.356125 52.244328,98.672485
	C50.928413,94.807991 50.725624,90.564453 50.013344,86.031281
M78.931305,66.432587
	C63.155678,70.952484 58.074436,88.114830 65.890015,100.458527
	C71.289619,108.986496 79.420746,112.974396 89.295921,111.733780
	C99.230278,110.485741 106.853294,105.016357 110.024513,95.226120
	C113.231178,85.326447 111.752449,75.657623 103.613541,68.702972
	C98.892326,64.668732 92.604515,62.467850 88.205063,60.083344
	C84.593491,62.645493 82.114265,64.404320 78.931305,66.432587
M150.609375,15.375186
	C155.172943,17.620426 156.767059,21.439505 155.510101,25.501778
	C154.828964,27.703135 151.835358,30.441629 149.685440,30.627214
	C146.827347,30.873936 143.052460,29.621128 140.985657,27.640909
	C138.307709,25.075165 138.798859,21.059931 140.990433,17.938501
	C143.254074,14.714412 146.518982,13.872732 150.609375,15.375186
z"/>
</svg>
